<svg height="512pt" viewBox="0 -23 512 512" width="512pt" xmlns="http://www.w3.org/2000/svg"><path d="m464.625 434.316406h-154.324219v-79.753906h154.324219c22.023438 0 39.875 17.855469 39.875 39.878906 0 22.023438-17.851562 39.875-39.875 39.875zm0 0" fill="#516980"/><path d="m310.300781 434.316406h121.933594c2.800781-34.328125-7.894531-61.855468-18.171875-79.753906h-103.761719zm0 0" fill="#3e4f61"/><path d="m220.746094 311.828125 25.257812 112.871094c5.117188 22.867187 27.800782 37.257812 50.667969 32.140625l47.753906-10.6875-34.523437-154.273438zm0 0" fill="#6a829a"/><path d="m309.902344 291.878906-89.15625 19.949219 6.03125 26.945313c19.070312 4.710937 52.546875 11.453124 96.832031 14.363281zm0 0" fill="#516980"/><path d="m344.425781 446.152344c-22.867187 5.117187-45.554687-9.273438-50.671875-32.140625l-25.257812-112.867188 82.8125-18.53125 25.253906 112.871094c5.117188 22.867187-9.273438 45.550781-32.136719 50.667969zm0 0" fill="#889cb0"/><path d="m268.5 301.144531 10.625 47.492188c24.242188 3.34375 54.039062 5.925781 88.285156 5.925781l-16.101562-71.949219zm0 0" fill="#6a829a"/><path d="m352.320312 401.328125c0 9.902344-8.027343 17.925781-17.925781 17.925781-9.898437 0-17.925781-8.023437-17.925781-17.925781 0-9.898437 8.027344-17.925781 17.925781-17.925781 9.898438 0 17.925781 8.027344 17.925781 17.925781zm0 0" fill="#f4e74d"/><path d="m249.742188 262.492188h-189.785157c-28.972656 0-52.457031-23.488282-52.457031-52.460938v-81.410156c0-66.894532 54.226562-121.121094 121.121094-121.121094 66.890625 0 121.117187 54.226562 121.117187 121.121094v133.871094zm0 0" fill="#996acc"/><path d="m53.976562 134.996094c-10.863281 52.578125-18.5 91.917968-26.378906 116.328125 8.914063 6.996093 20.148438 11.167969 32.359375 11.167969h189.785157v-133.871094c0-46.453125-26.140626-86.792969-64.523438-107.109375 0 0-107.1875-2.964844-131.242188 113.484375zm0 0" fill="#8049bf"/><path d="m337.863281 101.527344h-175.304687v210.367187h175.304687c51.929688 0 94.027344-47.089843 94.027344-105.183593 0-58.089844-42.097656-105.183594-94.027344-105.183594zm0 0" fill="#fc64d8"/><path d="m431.890625 206.710938c0-58.089844-42.097656-105.183594-94.027344-105.183594h-175.304687v163.804687l76.800781 2.074219s27.253906 20.828125 70.542969 24.472656c17.050781 1.4375 33.480468 9.082032 47.136718 17.824219 42.734376-9.90625 74.851563-52.25 74.851563-102.992187zm0 0" fill="#f338cc"/><path d="m256.585938 206.710938c0-58.089844-42.097657-105.183594-94.027344-105.183594-51.933594 0-94.03125 47.09375-94.03125 105.183594 0 58.09375 42.097656 105.183593 94.03125 105.183593 51.929687 0 94.027344-47.089843 94.027344-105.183593zm0 0" fill="#ff8de4"/><path d="m162.558594 264.085938c-25.484375 0-46.21875-25.738282-46.21875-57.375 0-31.636719 20.734375-57.371094 46.21875-57.371094 25.480468 0 46.214844 25.734375 46.214844 57.371094 0 31.636718-20.730469 57.375-46.214844 57.375zm0 0" fill="#f1e12b"/><path d="m146.382812 231.796875c-4.792968-6.691406-7.542968-15.835937-7.542968-25.085937 0-10.664063 3.636718-21.054688 9.722656-27.800782 2.773438-3.074218 7.515625-3.320312 10.59375-.542968 3.074219 2.777343 3.316406 7.519531.542969 10.59375-2.832031 3.136718-5.859375 9.449218-5.859375 17.75 0 6.1875 1.726562 12.148437 4.738281 16.351562 2.410156 3.367188 1.769531 8.25-1.730469 10.464844-5.101562 3.226562-9 .3125-10.464844-1.730469zm0 0" fill="#fcf5af"/><path d="m370.863281 7.5h-242.242187c66.894531 0 121.121094 54.230469 121.121094 121.121094v85.144531c0 26.910156 21.8125 48.726563 48.726562 48.726563h144.789062c26.910157 0 48.722657-21.816407 48.722657-48.726563v-85.144531c0-66.894532-54.226563-121.121094-121.117188-121.121094zm0 0" fill="#c7aee4"/><path d="m162.558594 141.839844c-29.621094 0-53.71875 29.101562-53.71875 64.871094 0 35.773437 24.097656 64.875 53.71875 64.875 29.617187 0 53.714844-29.101563 53.714844-64.875 0-35.769532-24.097657-64.871094-53.714844-64.871094zm0 114.746094c-21.351563 0-38.71875-22.375-38.71875-49.875s17.367187-49.871094 38.71875-49.871094c21.347656 0 38.714844 22.371094 38.714844 49.871094s-17.367188 49.875-38.714844 49.875zm0 0"/><path d="m359.207031 395.777344c-1.484375-6.628906-5.460937-12.28125-11.195312-15.917969s-12.542969-4.824219-19.167969-3.339844c-13.683594 3.058594-22.320312 16.679688-19.261719 30.363281 2.644531 11.816407 13.171875 19.875 24.808594 19.875 1.832031 0 3.695313-.199218 5.554687-.617187 13.683594-3.0625 22.320313-16.679687 19.261719-30.363281zm-22.535156 15.726562c-5.613281 1.253906-11.195313-2.289062-12.453125-7.898437-1.253906-5.609375 2.289062-11.195313 7.898438-12.449219.765624-.171875 1.527343-.253906 2.277343-.253906 4.773438 0 9.089844 3.304687 10.171875 8.148437 1.257813 5.609375-2.285156 11.195313-7.894531 12.453125zm0 0"/><path d="m464.625 347.0625h-65.480469c-4.140625 0-7.5 3.359375-7.5 7.5 0 4.144531 3.359375 7.5 7.5 7.5h65.480469c17.851562 0 32.375 14.527344 32.375 32.378906 0 17.851563-14.523438 32.375-32.375 32.375h-84.679688c5.046876-10.195312 6.457032-21.714844 3.9375-32.96875l-17.660156-78.925781c22.421875-7.226563 42.179688-22.914063 55.660156-44.929687h21.375c31.003907 0 56.226563-25.222657 56.226563-56.226563v-85.144531c0-70.921875-57.699219-128.621094-128.621094-128.621094h-242.242187c-24.050782 0-47.507813 6.683594-67.835938 19.324219-3.515625 2.1875-4.699218 6.878906-2.40625 10.328125 3.445313 5.199218 9.09375 3.175781 10.328125 2.410156 17.945313-11.164062 38.664063-17.0625 59.914063-17.0625 50.59375 0 93.5625 33.242188 108.230468 79.027344h-74.292968c-55.984375 0-101.53125 50.550781-101.53125 112.683594 0 17.269531 3.523437 33.636718 9.804687 48.28125h-10.875c-24.789062 0-44.957031-20.167969-44.957031-44.960938v-81.410156c0-29.613282 11.328125-57.648438 31.898438-78.9375 2.878906-2.980469 2.796874-7.730469-.179688-10.605469-2.980469-2.878906-7.730469-2.796875-10.605469.179687-23.289062 24.105469-36.113281 55.839844-36.113281 89.363282v81.410156c0 33.0625 26.898438 59.960938 59.957031 59.960938h18.636719c18.289062 29.796874 49.097656 49.402343 83.960938 49.402343h52.199218l23.929688 106.941407c2.914062 13.015624 10.71875 24.113281 21.980468 31.257812 8.097657 5.136719 19.441407 9.613281 37.644532 6.5625l47.75-10.683594h.003906c8.539062-1.914062 16.242188-5.941406 22.558594-11.65625h96.003906c26.121094 0 47.375-21.253906 47.375-47.378906 0-26.121094-21.253906-47.375-47.375-47.375zm-275.761719-332.0625h182c62.648438 0 113.621094 50.972656 113.621094 113.621094v85.144531c0 22.730469-18.496094 41.226563-41.226563 41.226563h-144.789062c-22.734375 0-41.226562-18.496094-41.226562-41.226563v-85.144531c0-49.171875-27.734376-91.984375-68.378907-113.621094zm51.683594 94.027344c2.640625 8.488281 1.695313 27.792968 1.695313 27.792968-8.03125-11.292968-17.882813-20.703124-28.984376-27.792968zm-164.519531 97.683594c0-53.863282 38.816406-97.683594 86.53125-97.683594 34.726562 0 65.980468 23.3125 79.621094 59.394531l.0625-.023437v45.367187c0 6.910156 1.261718 13.527344 3.550781 19.648437-10.523438 41.902344-44.449219 70.980469-83.234375 70.980469-47.714844 0-86.53125-43.820312-86.53125-97.683593zm180.046875 43.929687c10.316406 11.84375 25.488281 19.351563 42.394531 19.351563h105.289062c-16.367187 21.703124-40.378906 34.402343-65.894531 34.402343h-124.652343c18.925781-12.074219 34.140624-30.792969 42.863281-53.753906zm38.960937 198.878906c-18.796875 4.203125-37.507812-7.664062-41.714844-26.457031l-23.195312-103.667969h34.773438l21.539062 96.257813c2.871094 12.84375 10.519531 23.816406 21.546875 30.96875zm47.75-10.683593c-27.339844 6.96875-39.675781-17.355469-41.710937-26.460938l-20.804688-92.980469h57.59375c4.640625 0 9.230469-.359375 13.757813-1.042969l17.625 78.769532c2.035156 9.105468.539062 34.828125-26.460938 41.714844zm0 0"/></svg>