<svg height="512pt" viewBox="0 -24 512 512" width="512pt" xmlns="http://www.w3.org/2000/svg"><path d="m470.921875 439.695312h-158.980469v-82.15625h158.980469c22.6875 0 41.078125 18.390626 41.078125 41.078126s-18.390625 41.078124-41.078125 41.078124zm0 0" fill="#516980"/><path d="m311.941406 439.695312h125.613282c2.886718-35.363281-8.136719-63.722656-18.71875-82.15625h-106.894532zm0 0" fill="#3e4f61"/><path d="m219.683594 313.511719 26.019531 116.277343c5.269531 23.554688 28.640625 38.378907 52.199219 33.109376l49.191406-11.007813-35.5625-158.929687zm0 0" fill="#6a829a"/><path d="m311.53125 292.960938-91.847656 20.550781 6.210937 27.761719c19.648438 4.851562 54.136719 11.792968 99.757813 14.792968zm0 0" fill="#516980"/><path d="m347.09375 451.890625c-23.558594 5.273437-46.929688-9.550781-52.199219-33.109375l-26.019531-116.277344 85.308594-19.089844 26.019531 116.277344c5.269531 23.558594-9.550781 46.929688-33.109375 52.199219zm0 0" fill="#889cb0"/><path d="m268.875 302.503906 10.949219 48.925782c24.972656 3.445312 55.667969 6.109374 90.945312 6.109374l-16.585937-74.121093zm0 0" fill="#6a829a"/><path d="m355.226562 405.714844c0 10.199218-8.269531 18.464844-18.464843 18.464844-10.199219 0-18.46875-8.265626-18.46875-18.464844 0-10.199219 8.269531-18.464844 18.46875-18.464844 10.195312 0 18.464843 8.265625 18.464843 18.464844zm0 0" fill="#f4e74d"/><path d="m249.550781 262.6875h-195.507812c-29.847657 0-54.042969-24.195312-54.042969-54.042969v-83.867187c0-68.914063 55.863281-124.777344 124.777344-124.777344 68.910156 0 124.773437 55.863281 124.773437 124.777344zm0 0" fill="#996acc"/><path d="m47.878906 131.34375c-11.191406 54.164062-19.058594 94.691406-27.175781 119.839844 9.183594 7.207031 20.757813 11.503906 33.339844 11.503906h195.507812v-137.910156c0-47.855469-26.925781-89.414063-66.46875-110.34375 0 0-110.421875-3.054688-135.203125 116.910156zm0 0" fill="#8049bf"/><path d="m340.332031 96.863281h-180.59375v216.71875h180.59375c53.5 0 96.867188-48.511719 96.867188-108.359375 0-59.84375-43.367188-108.359375-96.867188-108.359375zm0 0" fill="#fc64d8"/><path d="m437.199219 205.222656c0-59.84375-43.367188-108.359375-96.867188-108.359375h-180.59375v168.75l79.117188 2.136719s28.078125 21.453125 72.675781 25.210938c17.5625 1.480468 34.488281 9.355468 48.558594 18.363281 44.023437-10.207031 77.109375-53.828125 77.109375-106.101563zm0 0" fill="#f338cc"/><path d="m256.601562 205.222656c0-59.84375-43.367187-108.359375-96.863281-108.359375-53.5 0-96.867187 48.515625-96.867187 108.359375s43.367187 108.359375 96.867187 108.359375c53.496094 0 96.863281-48.515625 96.863281-108.359375zm0 0" fill="#ff8de4"/><path d="m159.738281 264.328125c-26.253906 0-47.613281-26.515625-47.613281-59.105469s21.359375-59.105468 47.613281-59.105468c26.25 0 47.609375 26.515624 47.609375 59.105468.003906 32.589844-21.355468 59.105469-47.609375 59.105469zm0 0" fill="#f1e12b"/><path d="m143.074219 231.066406c-4.9375-6.894531-7.769531-16.316406-7.769531-25.84375 0-10.984375 3.742187-21.691406 10.015624-28.640625 2.859376-3.167969 7.742188-3.417969 10.914063-.558593 3.167969 2.859374 3.414063 7.746093.558594 10.914062-2.917969 3.230469-6.035157 9.730469-6.035157 18.285156 0 6.375 1.777344 12.515625 4.878907 16.84375 2.484375 3.472656 1.824219 8.5-1.785157 10.78125-5.253906 3.324219-9.269531.324219-10.777343-1.78125zm0 0" fill="#fcf5af"/><path d="m374.328125 0h-249.550781c68.910156 0 124.777344 55.863281 124.777344 124.777344v87.710937c0 27.722657 22.472656 50.199219 50.195312 50.199219h149.160156c27.722656 0 50.195313-22.476562 50.195313-50.199219v-87.710937c0-68.914063-55.863281-124.777344-124.777344-124.777344zm0 0" fill="#c7aee4"/></svg>